<svg version="1.1" xmlns="http://www.w3.org/2000/svg" xmlns:xlink="http://www.w3.org/1999/xlink" xmlns:a="http://ns.adobe.com/AdobeSVGViewerExtensions/3.0/" x="0px" y="0px" viewBox="0 0 78.9 70.7" style="enable-background:new 0 0 78.9 70.7;" xml:space="preserve"><defs/><g><path d="M19,41.9c-0.1-0.3-0.4-0.4-0.7-0.3c-0.3,0.1-0.4,0.4-0.3,0.7c1.1,2.7,2.8,5.1,5,7c0.1,0.1,0.2,0.1,0.3,0.1c0.1,0,0.3-0.1,0.4-0.2c0.2-0.2,0.2-0.5,0-0.7C21.7,46.7,20,44.5,19,41.9z"/><path d="M35.3,17.7c4.4,0,8.6,1.6,11.8,4.6c0.2,0.2,0.5,0.2,0.7,0c0.2-0.2,0.2-0.5,0-0.7c-3.4-3.1-7.9-4.8-12.5-4.8c-10.3,0-18.6,8.3-18.6,18.6c0,1,0.1,2,0.2,3c0,0.2,0.3,0.4,0.5,0.4c0,0,0.1,0,0.1,0c0.3,0,0.5-0.3,0.4-0.6c-0.2-0.9-0.2-1.9-0.2-2.8C17.7,25.6,25.6,17.7,35.3,17.7z"/><path d="M29.7,41.7h1.9c-0.1,1.8-0.8,3.4-2.1,4.7c-0.4,0.4-0.5,1-0.3,1.5c0.2,0.5,0.7,0.9,1.3,0.9h0.8c2.2,0,8,0,8.9,0h0c0.6,0,1.1-0.3,1.3-0.9c0.2-0.5,0.1-1.1-0.3-1.5c-1.3-1.2-2-2.9-2.1-4.6H41c3.1,0,5.7-2.5,5.7-5.7c0-2.2-1.3-4.2-3.3-5.1c-0.4-0.2-0.7-0.3-1.1-0.4c0.1-0.5,0.2-1,0.2-1.5c0-3.9-3.2-7.1-7.1-7.1c-3.9,0-7.1,3.2-7.1,7.1c0,0.5,0.1,1,0.2,1.6c-2.5,0.6-4.4,2.9-4.4,5.5C24,39.2,26.6,41.7,29.7,41.7z M29.3,33.3L29.3,33.3c0.1,0,0.3,0,0.4,0h0.8c0.5,0,1-0.3,1.2-0.7c0.3-0.4,0.3-1,0-1.4c-0.4-0.6-0.6-1.4-0.6-2.1c0-2.3,1.9-4.2,4.2-4.2s4.2,1.9,4.2,4.2c0,0.7-0.2,1.5-0.6,2.1c-0.3,0.4-0.3,1,0,1.4c0.3,0.4,0.7,0.7,1.2,0.7H41c0.4,0,0.8,0.1,1.2,0.3c1,0.5,1.6,1.5,1.6,2.6c0,1.6-1.3,2.8-2.8,2.8h-2.7c0,0-0.2,0-0.5,0c-0.7,0-1.3,0.5-1.4,1.2c-0.1,0.5-0.1,0.9-0.1,1.4c0,1.6,0.4,3.1,1.1,4.5c-1.3,0-2.7,0-4.1,0c0.7-1.4,1.1-2.9,1.1-4.5c0-0.5,0-0.9-0.1-1.4c-0.1-0.7-0.7-1.2-1.4-1.2h-3.2c-1.6,0-2.8-1.3-2.8-2.8C26.9,34.7,27.9,33.5,29.3,33.3z"/><path d="M48.7,46.8c-3.3,3.8-8.1,6.1-13.3,6.1c-3.5,0-6.9-1-9.8-3c-0.2-0.2-0.5-0.1-0.7,0.1c-0.2,0.2-0.1,0.5,0.1,0.7c3.1,2,6.6,3.1,10.3,3.1c5.5,0,10.6-2.5,14.1-6.5C49.2,47.3,48.9,47.1,48.7,46.8z"/><path d="M51,27.3c0.3-0.1,0.6-0.2,1-0.3c-0.4-0.7-0.7-1.4-1.2-2c-0.2-0.2-0.5-0.3-0.7-0.1c-0.2,0.2-0.3,0.5-0.1,0.7C50.3,26.1,50.7,26.7,51,27.3z"/><path d="M64.8,48.8c-1.4,3-3.2,5.8-5.4,8.2L55,52.6c1-1.2,2-2.4,2.8-3.8c-1.5,0-2.8,0-3.6,0c-4.2,5.9-11.1,9.7-18.8,9.7c-12.8,0-23.1-10.4-23.1-23.1s10.4-23.1,23.1-23.1c9,0,16.8,5.2,20.7,12.7l1.5-3.4c-0.8-1.3-1.8-2.6-2.8-3.7l4.4-4.4c0.5,0.5,0.9,1,1.3,1.5l0.6-0.2l1.8-0.3c0.3,0,0.7,0,1,0.1C57.4,5.7,47,0,35.3,0C15.9,0,0,15.9,0,35.3s15.9,35.3,35.3,35.3c14.7,0,27.4-9.1,32.7-21.9C67,48.8,65.9,48.8,64.8,48.8z M36.8,3c7.7,0.4,14.7,3.4,20.1,8.3l-4.4,4.4c-4.3-3.7-9.7-6.1-15.7-6.5V3z M33.8,3v6.2c-6,0.3-11.5,2.7-15.7,6.5l-4.4-4.4C19.1,6.5,26.1,3.4,33.8,3z M11.6,13.4l4.4,4.4c-3.8,4.2-6.3,9.7-6.7,15.8H3C3.5,25.8,6.6,18.8,11.6,13.4z M3,36.6h6.2c0.3,6.1,2.7,11.7,6.5,16L11.3,57C6.4,51.5,3.3,44.4,3,36.6z M33.8,67.7c-7.9-0.4-15-3.5-20.4-8.5l4.4-4.4c4.3,3.9,9.9,6.4,16,6.7V67.7z M36.8,67.7v-6.2c6.1-0.3,11.7-2.8,16-6.7l4.4,4.4C51.8,64.1,44.7,67.3,36.8,67.7z"/></g><path d="M72.8,46.9C72.7,46.9,72.7,46.9,72.8,46.9H53c-2.4,0-4.3-1.9-4.3-4.3V33c0-2.4,1.9-4.3,4.3-4.3h3.2l5.1-11.6c0.2-0.5,0.8-0.9,1.4-0.9c3.1,0,5.6,2.5,5.6,5.6v4h6.3c0.2,0,0.4,0,0.7,0c2.3,0.4,3.9,2.5,3.6,4.9L77,43.3C76.7,45.4,74.9,46.9,72.8,46.9z M58.6,43.9h14.1c0.7,0,1.2-0.5,1.3-1.1l1.9-12.5c0.1-0.7-0.4-1.3-1.1-1.4c-0.1,0-0.1,0-0.2,0h-7.8c-0.8,0-1.5-0.7-1.5-1.5v-5.5c0-1.1-0.7-2.1-1.7-2.5l-4.9,11.1V43.9z M53,31.7c-0.7,0-1.3,0.6-1.3,1.3v9.7c0,0.7,0.6,1.3,1.3,1.3h2.6V31.7H53z"/></svg>