<svg class="footer-logo--svg" xmlns="http://www.w3.org/2000/svg" xmlns:xlink="http://www.w3.org/1999/xlink" viewBox="0 0 147 40"><path fill-rule="evenodd" d="M138.328,21.295 C136.901,21.295 135.849,21.527 135.169,21.988 C134.488,22.450 134.148,23.059 134.148,23.814 C134.148,24.570 134.540,25.133 135.326,25.498 C136.111,25.866 137.310,26.229 138.924,26.586 C140.600,26.984 141.972,27.384 143.040,27.783 C144.109,28.181 145.024,28.810 145.791,29.671 C146.555,30.531 146.937,31.698 146.937,33.166 C146.937,34.425 146.586,35.574 145.885,36.615 C145.183,37.654 144.128,38.478 142.727,39.087 C141.322,39.694 139.615,40.000 137.604,40.000 C135.864,40.000 134.183,39.764 132.559,39.290 C130.936,38.818 129.633,38.205 128.648,37.448 L130.376,33.607 C131.318,34.299 132.440,34.857 133.739,35.276 C135.038,35.696 136.335,35.905 137.635,35.905 C139.080,35.905 140.150,35.690 140.841,35.261 C141.532,34.829 141.878,34.259 141.878,33.545 C141.878,33.019 141.673,32.584 141.266,32.238 C140.856,31.891 140.333,31.613 139.694,31.404 C139.055,31.193 138.190,30.963 137.102,30.709 C135.424,30.311 134.054,29.912 132.984,29.514 C131.917,29.116 131.000,28.475 130.235,27.593 C129.471,26.711 129.088,25.535 129.088,24.067 C129.088,22.787 129.434,21.626 130.125,20.587 C130.816,19.549 131.859,18.725 133.252,18.115 C134.644,17.506 136.347,17.202 138.359,17.202 C139.762,17.202 141.134,17.371 142.474,17.705 C143.816,18.042 144.989,18.525 145.993,19.154 L144.424,23.028 C142.391,21.874 140.358,21.295 138.328,21.295 ZM114.518,4.299 L141.204,4.299 L141.204,6.280 L114.518,6.280 L114.518,4.299 ZM120.666,18.682 C122.488,19.668 123.923,21.029 124.971,22.759 C126.019,24.491 126.542,26.439 126.542,28.601 C126.542,30.763 126.019,32.709 124.971,34.441 C123.923,36.174 122.488,37.534 120.666,38.520 C118.844,39.506 116.790,40.000 114.508,40.000 C112.224,40.000 110.164,39.506 108.332,38.520 C106.499,37.534 105.064,36.174 104.028,34.441 C102.989,32.709 102.472,30.763 102.472,28.601 C102.472,26.439 102.989,24.491 104.028,22.759 C105.064,21.029 106.499,19.668 108.332,18.682 C110.164,17.696 112.224,17.202 114.508,17.202 C116.790,17.202 118.844,17.696 120.666,18.682 ZM114.508,21.547 C113.207,21.547 112.035,21.846 110.987,22.444 C109.940,23.044 109.118,23.878 108.520,24.947 C107.923,26.019 107.626,27.235 107.626,28.601 C107.626,29.965 107.923,31.183 108.520,32.253 C109.118,33.324 109.940,34.158 110.987,34.756 C112.035,35.355 113.207,35.653 114.508,35.653 C115.805,35.653 116.979,35.355 118.027,34.756 C119.073,34.158 119.896,33.324 120.494,32.253 C121.091,31.183 121.388,29.965 121.388,28.601 C121.388,27.235 121.091,26.019 120.494,24.947 C119.896,23.878 119.073,23.044 118.027,22.444 C116.979,21.846 115.805,21.547 114.508,21.547 ZM97.581,0.198 L106.384,0.198 L106.384,2.366 L100.258,2.366 L100.258,4.900 L105.667,4.900 L105.667,7.003 L100.258,7.003 L100.258,9.703 L106.600,9.703 L106.600,11.871 L97.581,11.871 L97.581,0.198 ZM86.796,4.784 L86.796,11.871 L84.133,11.871 L84.133,0.198 L86.363,0.198 L92.154,7.285 L92.154,0.198 L94.817,0.198 L94.817,11.871 L92.602,11.871 L86.796,4.784 ZM93.611,17.580 L98.638,17.580 L98.638,39.621 L94.460,39.621 L83.492,26.239 L83.492,39.621 L78.465,39.621 L78.465,17.580 L82.675,17.580 L93.611,30.963 L93.611,17.580 ZM78.676,0.198 L81.371,0.198 L81.371,11.871 L78.676,11.871 L78.676,0.198 ZM68.624,0.198 L71.319,0.198 L71.319,9.670 L77.161,9.670 L77.161,11.871 L68.624,11.871 L68.624,0.198 ZM73.247,39.621 L68.156,39.621 L68.156,17.580 L73.247,17.580 L73.247,39.621 ZM57.841,4.784 L57.841,11.871 L55.179,11.871 L55.179,0.198 L57.409,0.198 L63.200,7.285 L63.200,0.198 L65.862,0.198 L65.862,11.871 L63.648,11.871 L57.841,4.784 ZM50.036,11.287 C49.071,11.810 47.982,12.071 46.774,12.071 C45.563,12.071 44.475,11.810 43.504,11.287 C42.533,10.765 41.772,10.045 41.224,9.129 C40.674,8.212 40.400,7.181 40.400,6.036 C40.400,4.891 40.674,3.860 41.224,2.941 C41.772,2.024 42.533,1.305 43.504,0.782 C44.475,0.260 45.563,-0.001 46.774,-0.001 C47.982,-0.001 49.071,0.260 50.036,0.782 C51.001,1.305 51.760,2.024 52.316,2.941 C52.870,3.860 53.148,4.891 53.148,6.036 C53.148,7.181 52.870,8.212 52.316,9.129 C51.760,10.045 51.001,10.765 50.036,11.287 ZM49.944,4.102 C49.627,3.533 49.193,3.092 48.637,2.774 C48.083,2.457 47.461,2.301 46.774,2.301 C46.085,2.301 45.465,2.457 44.909,2.774 C44.355,3.092 43.919,3.533 43.604,4.102 C43.287,4.668 43.129,5.312 43.129,6.036 C43.129,6.757 43.287,7.401 43.604,7.970 C43.919,8.537 44.355,8.978 44.909,9.295 C45.465,9.612 46.085,9.771 46.774,9.771 C47.461,9.771 48.083,9.612 48.637,9.295 C49.193,8.978 49.627,8.537 49.944,7.970 C50.260,7.401 50.419,6.757 50.419,6.036 C50.419,5.312 50.260,4.668 49.944,4.102 ZM38.524,39.621 L38.524,34.897 L33.434,22.587 L28.312,34.897 L28.312,39.621 L21.146,39.621 L30.951,17.580 L35.980,17.580 L45.815,39.621 L38.524,39.621 ZM5.796,4.299 L32.482,4.299 L32.482,6.280 L5.796,6.280 L5.796,4.299 ZM12.002,17.202 C13.909,17.202 15.633,17.539 17.172,18.210 C18.712,18.881 20.005,19.847 21.054,21.108 L17.785,24.129 C16.297,22.409 14.454,21.547 12.255,21.547 C10.892,21.547 9.678,21.846 8.608,22.444 C7.541,23.044 6.709,23.878 6.110,24.947 C5.514,26.019 5.214,27.235 5.214,28.601 C5.214,29.965 5.514,31.183 6.110,32.253 C6.709,33.324 7.541,34.158 8.608,34.756 C9.678,35.355 10.892,35.653 12.255,35.653 C14.454,35.653 16.297,34.783 17.785,33.040 L21.054,36.064 C20.005,37.344 18.706,38.319 17.156,38.992 C15.606,39.663 13.878,40.000 11.971,40.000 C9.730,40.000 7.703,39.510 5.890,38.535 C4.077,37.559 2.655,36.205 1.616,34.474 C0.579,32.740 0.062,30.785 0.062,28.601 C0.062,26.417 0.579,24.460 1.616,22.729 C2.655,20.997 4.077,19.643 5.890,18.667 C7.703,17.690 9.739,17.202 12.002,17.202 ZM30.058,31.503 C30.096,31.401 30.193,31.333 30.302,31.333 L36.658,31.333 C36.768,31.333 36.867,31.402 36.904,31.506 L38.000,34.547 C38.061,34.717 37.935,34.897 37.754,34.897 L29.164,34.897 C28.981,34.897 28.855,34.715 28.919,34.544 L30.058,31.503 ZM35.358,33.783 C35.988,33.783 36.498,33.629 36.498,33.439 C36.498,33.250 35.988,33.096 35.358,33.096 C34.729,33.096 34.218,33.250 34.218,33.439 C34.218,33.629 34.729,33.783 35.358,33.783 ZM31.979,32.599 C32.514,32.599 32.948,32.468 32.948,32.307 C32.948,32.145 32.514,32.014 31.979,32.014 C31.443,32.014 31.009,32.145 31.009,32.307 C31.009,32.468 31.443,32.599 31.979,32.599 ZM33.434,37.687 C33.966,37.687 34.399,38.120 34.399,38.654 C34.399,39.188 33.966,39.621 33.434,39.621 C32.901,39.621 32.469,39.188 32.469,38.654 C32.469,38.120 32.901,37.687 33.434,37.687 ZM51.472,35.276 C52.771,35.696 54.070,35.905 55.369,35.905 C56.813,35.905 57.883,35.690 58.574,35.261 C59.265,34.829 59.610,34.259 59.610,33.545 C59.610,33.019 59.406,32.584 58.998,32.238 C58.589,31.891 58.066,31.613 57.427,31.404 C56.788,31.193 55.923,30.963 54.834,30.709 C53.159,30.311 51.786,29.912 50.717,29.514 C49.649,29.116 48.732,28.475 47.968,27.593 C47.203,26.711 46.821,25.535 46.821,24.067 C46.821,22.787 47.167,21.626 47.858,20.587 C48.549,19.549 49.591,18.725 50.985,18.115 C52.377,17.506 54.080,17.202 56.091,17.202 C57.494,17.202 58.867,17.371 60.209,17.705 C61.548,18.042 62.722,18.525 63.728,19.154 L62.157,23.028 C60.124,21.874 58.091,21.295 56.060,21.295 C54.636,21.295 53.581,21.527 52.902,21.988 C52.221,22.450 51.881,23.059 51.881,23.814 C51.881,24.570 52.273,25.133 53.058,25.498 C53.844,25.866 55.043,26.229 56.657,26.586 C58.332,26.984 59.705,27.384 60.774,27.783 C61.842,28.181 62.759,28.810 63.523,29.671 C64.288,30.531 64.670,31.698 64.670,33.166 C64.670,34.425 64.319,35.574 63.618,36.615 C62.915,37.654 61.863,38.478 60.460,39.087 C59.056,39.694 57.348,40.000 55.336,40.000 C53.597,40.000 51.917,39.764 50.294,39.290 C48.670,38.818 47.366,38.205 46.381,37.448 L48.109,33.607 C49.053,34.299 50.172,34.857 51.472,35.276 Z"/></svg>