<svg version="1.1" id="Layer_1" xmlns="http://www.w3.org/2000/svg" xmlns:xlink="http://www.w3.org/1999/xlink" x="0px" y="0px" viewBox="0 0 22.3 26.7" style="enable-background:new 0 0 22.3 26.7;" xml:space="preserve"><style type="text/css">.st0{fill:#212121;}</style><g id="Group_38" transform="translate(-5.069 13.186) rotate(-43)"><path id="Path_155" class="st0" d="M7.3,10.6c2.2,6.2,5.2,6.9,10.5,5.8c-3,2.9-6.4,3.3-5.5,10.5c-2.2-5.9-4.3-6.1-9.6-5.9C6.7,18.7,9,17,7.3,10.6z"/><path id="Path_156" class="st0" d="M21.6,2.1c-2,3.8-1,5.5,1.9,7.6c-2.7-0.2-4.4-1.6-7.4,2c1.9-3.6,1-4.8-1.4-7.2C17.5,5.4,19.4,5.8,21.6,2.1z"/><path id="Path_157" class="st0" d="M9.9,0.1C8.6,2.6,9.2,3.7,11.1,5C9.3,4.9,8.2,4,6.3,6.3C7.5,4,6.9,3.3,5.3,1.7C7.2,2.2,8.4,2.5,9.9,0.1z"/></g></svg>